<?xml version="1.0" encoding="iso-8859-1"?>
<!-- Generator: Adobe Illustrator 19.0.0, SVG Export Plug-In . SVG Version: 6.00 Build 0)  -->
<svg version="1.1" id="Capa_1" xmlns="http://www.w3.org/2000/svg" xmlns:xlink="http://www.w3.org/1999/xlink" x="0px" y="0px"
	 viewBox="0 0 512 512" style="enable-background:new 0 0 512 512;" xml:space="preserve">
<polygon style="fill:#EC3722;" points="226,340 451.75,310 451.75,279.998 421.75,230 256,230 "/>
<polygon style="fill:#FC6538;" points="60.25,310 256,340 256,230 90.25,230 60.25,279.998 "/>
<path style="fill:#FABA51;" d="M451.75,512H256l-60-147l255.75,72V512z"/>
<path style="fill:#FCD18B;" d="M256,512H60.25v-75L256,365V512z"/>
<path style="fill:#FC6538;" d="M451.75,437H256l75.25-127h120.5V437z"/>
<g>
	<path style="fill:#FF9246;" d="M256,437H60.25V310h120.5L256,437z"/>
	<polygon style="fill:#FF9246;" points="331.25,512 256,512 226,452 331.25,482 	"/>
</g>
<polygon style="fill:#FABA51;" points="256,512 180.75,512 180.75,482 256,452 "/>
<path style="fill:#821C0F;" d="M331.25,482H256l-30-86l30-86h75.25V482z"/>
<path style="fill:#B72919;" d="M256,482h-75.25V310H256V482z"/>
<path style="fill:#FABA51;" d="M492.71,200.37l-195.52-184C286.01,5.81,271.38,0,256,0l-15,135v145h30v-20h30.25v20h30v-20h30.25v20
	h30v-20h30.25v20h30v-20H482v20h30v-35C512,229.9,503.71,210.72,492.71,200.37z"/>
<path style="fill:#FCD18B;" d="M256,0c-15.38,0-30.01,5.81-41.17,16.35L19.29,200.37C8.29,210.72,0,229.9,0,245v35h30v-20h30.25v20
	h30v-20h30.25v20h30v-20h30.25v20h30v-20H256V0z"/>
<g>
</g>
<g>
</g>
<g>
</g>
<g>
</g>
<g>
</g>
<g>
</g>
<g>
</g>
<g>
</g>
<g>
</g>
<g>
</g>
<g>
</g>
<g>
</g>
<g>
</g>
<g>
</g>
<g>
</g>
</svg>
