<?xml version="1.0" encoding="iso-8859-1"?>
<!-- Generator: Adobe Illustrator 19.0.0, SVG Export Plug-In . SVG Version: 6.00 Build 0)  -->
<svg version="1.1" id="Capa_1" xmlns="http://www.w3.org/2000/svg" xmlns:xlink="http://www.w3.org/1999/xlink" x="0px" y="0px"
	 viewBox="0 0 512 512" style="enable-background:new 0 0 512 512;" xml:space="preserve">
<g>
	<g>
		<path d="M407,60h-30c-8.284,0-15,6.716-15,15c0,9.497,0,80.292,0,90c0,8.284,6.716,15,15,15s15-6.716,15-15v-15h15
			c24.813,0,45-20.187,45-45S431.813,60,407,60z M407,120h-15c0-10.856,0-19.144,0-30h15c8.271,0,15,6.729,15,15
			S415.271,120,407,120z"/>
	</g>
</g>
<g>
	<g>
		<path d="M497,0H317c-8.284,0-15,6.716-15,15v210c0,8.284,6.716,15,15,15h75v242h-15c-8.284,0-15,6.716-15,15s6.716,15,15,15h60
			c8.284,0,15-6.716,15-15s-6.716-15-15-15h-15V240h75c8.284,0,15-6.716,15-15V15C512,6.716,505.284,0,497,0z M482,210H332V30h150
			V210z"/>
	</g>
</g>
<g>
	<g>
		<path d="M312.105,311.108l13.501-13.501c5.859-5.858,5.859-15.356,0.001-21.214c-5.857-5.857-15.355-5.857-21.213,0
			l-12.838,12.838l-15.487-46.462C269.933,224.365,252.777,212,233.377,212H96.623c-19.399,0-36.556,12.365-42.691,30.77
			l-15.86,47.582l-11.87-13.328c-5.512-6.188-14.991-6.734-21.178-1.225c-6.187,5.51-6.734,14.991-1.225,21.178l13.208,14.829
			C6.654,320.058,0,332.763,0,347c0,1.597,0,118.432,0,120c0,24.813,20.187,45,45,45s45-20.187,45-45v-15h150v15
			c0,24.813,20.187,45,45,45s45-20.187,45-45c0-1.568,0-118.403,0-120C330,332.358,322.967,319.33,312.105,311.108z M82.393,252.257
			C84.438,246.122,90.156,242,96.623,242h136.754c6.467,0,12.186,4.122,14.23,10.257L264.189,302H65.812L82.393,252.257z M60,467
			c0,8.271-6.729,15-15,15s-15-6.729-15-15v-15h30V467z M300,467c0,8.271-6.728,15-15,15c-8.271,0-15-6.729-15-15v-15h30V467z
			 M300,422H30v-75c0-8.271,6.729-15,15-15h240c8.271,0,15,6.729,15,15V422z"/>
	</g>
</g>
<g>
	<g>
		<path d="M195,362h-60c-8.284,0-15,6.716-15,15s6.716,15,15,15h60c8.284,0,15-6.716,15-15S203.284,362,195,362z"/>
	</g>
</g>
<g>
</g>
<g>
</g>
<g>
</g>
<g>
</g>
<g>
</g>
<g>
</g>
<g>
</g>
<g>
</g>
<g>
</g>
<g>
</g>
<g>
</g>
<g>
</g>
<g>
</g>
<g>
</g>
<g>
</g>
</svg>
