<svg id="Capa_1" enable-background="new 0 0 508.852 508.852" height="512" viewBox="0 0 508.852 508.852" width="512" xmlns="http://www.w3.org/2000/svg"><g id="XMLID_421_"><path id="XMLID_422_" d="m136.044 268.746h30v67.17h-30z"/><path id="XMLID_618_" d="m336.932 268.746h30v67.17h-30z"/><path id="XMLID_673_" d="m422.019 376.739v-143.961c2.912-2.117 5.616-4.551 8.053-7.278l12.012-13.441v-19.409c-.001-106.174-85.624-192.597-190.868-192.65-.034 0-.064 0-.098 0-50.991 0-98.935 19.851-135.001 55.9-36.089 36.073-55.965 84.04-55.965 135.066l.225 21.16 11.941 13.365c2.393 2.678 5.044 5.072 7.896 7.162v144.086h-26.677v30h26.677v102.113h30v-102.113h81.868v102.113h30v-36.667h58.07v36.667h30v-102.113h81.867v102.113h30v-102.113h33.296v-30zm-284.695-299.62c21.185-21.175 47.231-35.709 75.619-42.581-8.854 17.403-13.348 39.283-13.348 65.315h30c0-42.334 13.628-60.295 21.567-67.167 7.94 6.872 21.567 24.832 21.567 67.167h30c0-25.964-4.472-47.797-13.28-65.178 70.305 17.427 122.633 81.651 122.633 157.976v7.957l-4.381 4.902c-4.074 4.56-9.686 7.07-15.801 7.07s-11.727-2.511-15.738-7l-.079-.088c-4.922-5.507-11.981-8.665-19.367-8.665-7.386.001-14.444 3.16-19.373 8.677-4.074 4.561-9.687 7.072-15.803 7.072-6.078 0-11.658-2.481-15.727-6.988l-.085-.095c-4.922-5.507-11.98-8.666-19.366-8.666-7.387 0-14.445 3.159-19.366 8.667l-.023.025c-4.073 4.549-9.679 7.055-15.787 7.055-6.088 0-11.678-2.489-15.748-7.011l-.061-.067c-4.922-5.508-11.981-8.667-19.368-8.667s-14.446 3.16-19.368 8.669c-4.075 4.561-9.688 7.073-15.804 7.073s-11.729-2.512-15.803-7.074c-4.921-5.509-11.98-8.668-19.368-8.668-7.337 0-14.352 3.118-19.269 8.558l-.104.116c-4.075 4.561-9.687 7.072-15.803 7.072s-11.728-2.512-15.802-7.072l-4.435-4.963-.103-9.653c.022-42.982 16.773-83.381 47.174-113.768zm-27.11 299.62v-134.172c.093 0 .184.007.277.007 13.119 0 25.716-5.057 35.176-14 9.459 8.941 22.053 13.996 35.17 13.997h.001c13.117 0 25.711-5.055 35.172-13.997 9.461 8.944 22.057 14.001 35.177 14 13.119 0 25.715-5.057 35.176-14.001 9.461 8.945 22.058 14.002 35.178 14.002 13.117 0 25.71-5.055 35.178-14.003 9.462 8.948 22.061 14.007 35.184 14.006.039 0 .077-.003.116-.003v134.162h-81.867v-107.991h-118.07v107.993zm111.868 0v-77.993h58.07v77.993zm58.07 65.447h-58.07v-35.447h58.07z"/></g></svg>