<?xml version="1.0" encoding="iso-8859-1"?>
<!-- Generator: Adobe Illustrator 19.0.0, SVG Export Plug-In . SVG Version: 6.00 Build 0)  -->
<svg version="1.1" id="Capa_1" xmlns="http://www.w3.org/2000/svg" xmlns:xlink="http://www.w3.org/1999/xlink" x="0px" y="0px"
	 viewBox="0 0 512 512" style="enable-background:new 0 0 512 512;" xml:space="preserve">
<g>
	<g>
		<path d="M504.926,212.267C495.436,206.36,291.338,79.329,284.384,75l75.918-47.264c7.033-4.378,9.185-13.629,4.806-20.662
			c-4.379-7.033-13.628-9.184-20.662-4.806L256,57.333L167.553,2.269c-7.033-4.379-16.283-2.227-20.662,4.806
			c-4.378,7.033-2.227,16.283,4.806,20.662l75.919,47.265C222.526,78.17,13.295,208.406,7.073,212.278
			C2.674,215.015,0,219.83,0,225.012V497c0,8.284,6.716,15,15,15c18.956,0,461.344,0,482,0c8.284,0,15-6.716,15-15V225.001
			C512,219.82,509.326,215.005,504.926,212.267z M444.515,210.002l-147.785,0.003l62.375-53.163L444.515,210.002z M271,102.007
			l61.375,38.2L271,192.518V102.007z M241,102.007v90.511l-61.373-52.309L241,102.007z M152.899,156.845l62.373,53.162
			L67.486,210.01L152.899,156.845z M168.7,482H30v-40.5h138.7V482z M168.7,411.501H30v-40h138.7V411.501z M313.3,482H198.7V322.001
			h114.6V482z M482,482H343.3v-40.5H482V482z M482,411.501H343.3v-40H482V411.501z M482,341.501H343.3v-34.5c0-8.284-6.716-15-15-15
			H183.7c-8.284,0-15,6.716-15,15v34.5H30v-101.49c4.896,0,446.775-0.009,452-0.009V341.501z"/>
	</g>
</g>
<g>
</g>
<g>
</g>
<g>
</g>
<g>
</g>
<g>
</g>
<g>
</g>
<g>
</g>
<g>
</g>
<g>
</g>
<g>
</g>
<g>
</g>
<g>
</g>
<g>
</g>
<g>
</g>
<g>
</g>
</svg>
