<?xml version="1.0" encoding="iso-8859-1"?>
<!-- Generator: Adobe Illustrator 19.0.0, SVG Export Plug-In . SVG Version: 6.00 Build 0)  -->
<svg version="1.1" id="Capa_1" xmlns="http://www.w3.org/2000/svg" xmlns:xlink="http://www.w3.org/1999/xlink" x="0px" y="0px"
	 viewBox="0 0 512 512" style="enable-background:new 0 0 512 512;" xml:space="preserve">
<g>
	<g>
		<path d="M492.715,200.37L297.187,16.369C286.008,5.813,271.38,0,256,0s-30.008,5.813-41.168,16.352L19.286,200.37
			C8.291,210.716,0,229.902,0,245v35h30v-20h30.25v252h391.5V260H482v20h30v-35C512,229.902,503.709,210.716,492.715,200.37z
			 M180.75,482h-90.5v-30h90.5V482z M301.25,482h-90.5V340h90.5V482z M421.75,482h-90.5v-30h90.5V482z M421.75,422h-90.5V310h-150.5
			v112h-90.5V260h30.25v20h30v-20h30.25v20h30v-20H241v20h30v-20h30.25v20h30v-20h30.25v20h30v-20h30.25V422z M34.387,230
			c1.62-3.156,3.53-5.969,5.457-7.782L235.41,38.182C240.998,32.905,248.31,30,256,30s15.002,2.905,20.608,8.199l195.547,184.019
			c1.927,1.813,3.837,4.626,5.457,7.782H34.387z"/>
	</g>
</g>
<g>
</g>
<g>
</g>
<g>
</g>
<g>
</g>
<g>
</g>
<g>
</g>
<g>
</g>
<g>
</g>
<g>
</g>
<g>
</g>
<g>
</g>
<g>
</g>
<g>
</g>
<g>
</g>
<g>
</g>
</svg>
